# xmcd
#
# Track frame offsets: 
#        150
#        19454
#        41996
#        60418
#        75264
#        92364
#        112068
#        127894
#        140875
#        163697
#        166838
#        181238
#        208463
#
# Disc length: 3002 seconds
#
# Revision: 0
# Processed by: cddbd v1.5.2PL0 Copyright (c) Steve Scherf et al.
# Submitted via: ExactAudioCopy v0.99pb5
#
DISCID=b10bb80d
DTITLE=Fredrik - Trilogy
DYEAR=2010
DGENRE=Pop, Folk
TTITLE0=Vinterbarn
TTITLE1=Milo
TTITLE2=Holm
TTITLE3=Den Sista Fabriken
TTITLE4=Vanmyren
TTITLE5=Ava
TTITLE6=Flax
TTITLE7=Under Vattenverket
TTITLE8=Ner
TTITLE9=Trestusen Violer
TTITLE10=Viskra
TTITLE11=Locked In The Basement
TTITLE12=Omberg
EXTD=
EXTT0=
EXTT1=
EXTT2=
EXTT3=
EXTT4=
EXTT5=
EXTT6=
EXTT7=
EXTT8=
EXTT9=
EXTT10=
EXTT11=
EXTT12=
PLAYORDER=
